<?xml version="1.0" encoding="utf-8"?>
<!-- Generator: Adobe Illustrator 18.1.1, SVG Export Plug-In . SVG Version: 6.00 Build 0)  -->
<svg version="1.1" id="Layer_1" xmlns="http://www.w3.org/2000/svg" xmlns:xlink="http://www.w3.org/1999/xlink" x="0px" y="0px"
	 viewBox="0 0 731 294" enable-background="new 0 0 731 294" xml:space="preserve">
<path fill-rule="evenodd" clip-rule="evenodd" fill="#FFFFFF" d="M345,262.5c0,1.8-1,3.7-2.9,5.6l-14.7,14.4c-2.2,2.2-5,3.3-8.5,3.3
	c-0.9,0-1.6-0.2-2.3-0.3c0.6-0.2,1.4-0.4,2.4-0.7c1.8-0.8,3.9-2.2,6.1-4.3l10.7-10.5c1.9-1.9,2.8-3.3,2.8-4.5c0-0.2-0.6-1.6-1.7-3.9
	l-1.6-3.2c-1.2-2.4-1.8-4.1-1.8-4.9c0-1.5,0.6-2.8,1.7-4.2c1.5-1.4,3-2.8,4.4-4.2c-0.3,1-0.5,2-0.5,2.8c0,0.8,0.6,2.3,1.6,4.4
	l2.3,4.8C344.3,259.4,345,261.3,345,262.5z"/>
<path fill-rule="evenodd" clip-rule="evenodd" fill="#FFFFFF" d="M670,263.3c1.2,0,2.2,0,3,0l-2.5-4.9c-0.2-0.3-0.4-0.7-0.5-1
	c-0.5-1.1-0.7-1.9-0.7-2.5c-0.2,0.2-0.8,0.8-1.6,1.7c-0.4,0.5-0.7,0.9-0.7,1.2c0,0.7,0.2,1.3,0.7,2.1l1.7,3.3
	C669.6,263.3,669.8,263.3,670,263.3L670,263.3z M562.1,243.3l1.2,2.3l2.4-2.3c-0.5,1.4-0.7,2.8-0.7,4.1c0,1,0.8,3.1,2.5,6.4l4.9,9.5
	h2.8h2.4h0.1l0,0c0.8,0.1,2.4,1.2,4.4,3.2c0.7,0.8,2.1,2.1,3.7,3.9c0.4-0.6,0.7-1.2,0.7-1.7c0-0.5-0.4-1.5-1.2-3.1l-1.6-3.2
	c-1.2-2.4-1.9-4-1.9-4.9c0-1.5,0.7-2.9,1.8-4.2c1.5-1.5,3-2.9,4.4-4.3c-0.3,1.2-0.5,2.1-0.5,2.8c0,0.9,0.5,2.4,1.5,4.4l2.4,4.7
	c0.6,1.2,0.9,1.9,1.2,2.5h2.8h2.4h0.2l0,0c0.8,0.2,2.3,1.2,4.4,3.2c0.7,0.8,2,2.1,3.7,3.9c0.4-0.6,0.7-1.2,0.7-1.7
	c0-0.5-0.5-1.5-1.2-3.1l-1.6-3.2c-1.2-2.4-1.8-4-1.8-4.9c0-1.5,0.7-2.9,1.8-4.2c1.5-1.5,3-2.9,4.4-4.3c-0.3,1.2-0.5,2.1-0.5,2.8
	c0,0.9,0.5,2.4,1.6,4.4l2.3,4.7c0.7,1.2,1,1.9,1.2,2.5h2.7h2.6h29.9l-1.5-3h-26c-0.8,0-1.6-0.2-2.3-0.9c-0.7-0.7-1.2-1.6-1.2-2.7
	c0-0.4,1.2-1.6,3.3-3.8l14.3-13.8c2.1-1.9,3-3.5,3-5.1c0-3.6-1.7-5.4-5.1-5.4c-1.2,0-2.5,0.2-4.1,0.9c-1.2,0.5-2.4,1.1-3.6,1.6
	l10.7-10.6l3.6,7.2c1.2,2.4,1.8,4.4,1.8,6.2c0,2.4-1.2,4.7-3.5,6.9l-6,5.8c-1.6,1.5-2.4,2.5-2.4,3.1c0,0.8,0.2,1.4,0.4,1.8l0.5,1.3
	c0.6,1.4,1.6,2.1,3.3,2.1h16.6c0.7,0,1.4,0.9,2.2,2.6l2.6,5.7h2.1h2.5h0.8l-0.7-1.4c-0.3-0.7-0.6-1.3-0.6-1.9c0-1.3,0.5-2.5,1.6-3.5
	l9.5-9.5l3.6-3.6c-0.5,1.4-0.7,2.8-0.7,4.1c0,1,0.7,2.9,2.1,5.7l8.1,15.5H670h-10.7h-2.5H618h-2.6h-3.1c-0.4,0.6-1.1,1.3-2.1,2.2
	l-5.6,5.3c-0.2-1.5-1.2-3-2.7-4.8c-1.6-1.8-3-2.7-4-2.7h-2.5h-3.2c-0.4,0.6-1.1,1.3-2.1,2.2l-5.6,5.3c-0.3-1.5-1.2-3-2.8-4.8
	c-1.5-1.8-2.9-2.7-4-2.7h-2.5h-13.1h-11.5c1-1.2,1.5-2.1,1.5-2.5c0-0.5-0.2-1.2-0.7-2.3c-0.5-1-0.7-2-0.7-2.9c0-1.7,0.7-3.2,1.9-4.5
	l6-5.9l-2.2-4.2l4.9-4.6L562.1,243.3L562.1,243.3z M562.1,263.3c1.2,0,2.1,0,3,0l-2.5-4.9c-0.2-0.3-0.4-0.7-0.5-1
	c-0.5-1.1-0.7-1.9-0.7-2.5c-0.2,0.2-0.8,0.8-1.6,1.7c-0.4,0.5-0.7,0.9-0.7,1.2c0,0.7,0.2,1.3,0.7,2.1l1.6,3.3
	C561.7,263.3,561.9,263.3,562.1,263.3z"/>
<path fill-rule="evenodd" clip-rule="evenodd" fill="#FFFFFF" d="M613.3,244.1c0,0.6-0.6,1.9-1.9,3.9c-0.9-1.2-2.1-2.2-3.5-2.8
	c-1.1-0.5-1.6-1-1.6-1.7c0-0.7,1.4-2.1,4.2-4.4c0.1,0.9,0.6,1.8,1.5,2.6C612.9,242.5,613.3,243.4,613.3,244.1L613.3,244.1z"/>
<path fill-rule="evenodd" clip-rule="evenodd" fill="#FFFFFF" d="M605.1,244.1c0,0.6-0.7,1.9-1.9,3.9c-0.9-1.2-2.1-2.2-3.6-2.8
	c-1.1-0.5-1.6-1-1.6-1.7c0-0.7,1.4-2.1,4.2-4.4c0.1,0.9,0.6,1.8,1.5,2.6C604.6,242.5,605.1,243.4,605.1,244.1z"/>
<path fill-rule="evenodd" clip-rule="evenodd" fill="#FFFFFF" d="M583.9,281c0,0.6-0.7,1.9-1.9,3.8c-0.9-1.2-2.1-2.1-3.6-2.8
	c-1.1-0.4-1.6-0.9-1.6-1.6c0-0.7,1.4-2.1,4.2-4.3c0.1,0.8,0.6,1.7,1.5,2.5C583.4,279.5,583.9,280.3,583.9,281z"/>
<path fill-rule="evenodd" clip-rule="evenodd" fill="#FFFFFF" d="M562.1,238.2c0.2,0.2,0.5,0.4,1,0.6c1.4,0.6,2.6,1.5,3.5,2.7
	c1.2-2,1.9-3.2,1.9-3.8c0-0.7-0.5-1.5-1.4-2.4c-0.9-0.8-1.4-1.7-1.5-2.5c-1.6,1.4-2.9,2.5-3.5,3.2c-0.4,0.5-0.7,0.8-0.7,1
	C561.4,237.4,561.7,237.8,562.1,238.2z"/>
<path fill-rule="evenodd" clip-rule="evenodd" fill="#FFFFFF" d="M560.2,237.7c0,0.6-0.6,1.8-1.9,3.8c-0.9-1.2-2.1-2.1-3.6-2.7
	c-1-0.4-1.6-1.1-1.6-1.8c0-0.5,1.4-2,4.2-4.2c0.1,0.8,0.7,1.7,1.6,2.5C559.8,236.2,560.2,236.9,560.2,237.7z"/>
<path fill-rule="evenodd" clip-rule="evenodd" fill="#FFFFFF" d="M386.7,268.6h-2.5h-34.5v-8.7c3,2.2,6.2,3.4,9.5,3.4h16.3l-1.5-3
	h-13.8c-2.1,0-3.9-1.4-5.4-4.4l-2.8-5.7c-0.5-0.9-1.2-1.6-2.3-2.1l4.7-4.7l4.4,9c0.9,1.7,2.1,2.5,3.5,2.5h15c0.7,0,1.3,0.9,2.2,2.6
	l2.6,5.7h2.1h2.5h0.1l0,0c0.8,0.1,2.3,1.2,4.4,3.2c0.7,0.8,2,2.1,3.7,3.9c0.4-0.6,0.6-1.2,0.6-1.7c0-0.5-0.3-1.5-1.2-3.1l-1.6-3.2
	c-1.2-2.4-1.8-4-1.8-4.9c0-1.5,0.6-2.9,1.7-4.2c1.6-1.5,3-2.9,4.5-4.3c-0.3,1.2-0.5,2.1-0.5,2.8c0,0.9,0.5,2.4,1.6,4.4l2.4,4.7
	c0.5,1.2,0.9,1.9,1.1,2.5h2.8h2.5h30l-1.5-3h-26c-0.9,0-1.6-0.2-2.3-0.9c-0.7-0.7-1.2-1.6-1.2-2.7c0-0.4,1.2-1.6,3.3-3.8l14.3-13.8
	c2-1.9,3-3.5,3-5.1c0-3.6-1.7-5.4-5.2-5.4c-1.2,0-2.5,0.2-4,0.9c-1.2,0.5-2.4,1.1-3.6,1.6l10.7-10.6l3.6,7.2
	c1.2,2.4,1.8,4.4,1.8,6.2c0,2.4-1.2,4.7-3.5,6.9l-6.1,5.8c-1.5,1.5-2.3,2.5-2.3,3.1c0,0.8,0.2,1.4,0.4,1.8l0.5,1.3
	c0.6,1.4,1.6,2.1,3.2,2.1h16.7c0.7,0,1.4,0.9,2.2,2.6l2.6,5.7h2.1h2.6h2.5l-0.2-0.6c-0.5-1-1.2-1.6-2.3-2.2l4.7-4.7l3.7,7.5h4
	l-1.9-3.7c-0.4-0.9-1.2-1.6-2.3-2.2l4.7-4.6l5.2,10.5h4.1l-3.5-6.9c-0.5-0.9-1.2-1.6-2.4-2.1l4.8-4.6l6.9,14
	c0.7,1.2,1.2,2.1,1.5,2.5c0.7,0.7,1.6,1.1,2.8,1.1c-1.2,1-2.5,1.5-4.1,1.5h-28.1h-2.6h-38.7h-2.5h-3.2c-0.4,0.6-1.2,1.3-2.1,2.2
	l-5.6,5.3c-0.2-1.5-1.2-3-2.8-4.8C389.2,269.5,387.8,268.6,386.7,268.6z"/>
<path fill-rule="evenodd" clip-rule="evenodd" fill="#FFFFFF" d="M395.4,244.1c0,0.6-0.6,1.9-1.9,3.9c-0.9-1.2-2.1-2.2-3.5-2.8
	c-1.1-0.5-1.6-1-1.6-1.7c0-0.7,1.4-2.1,4.2-4.4c0.1,0.9,0.7,1.8,1.5,2.6C394.9,242.5,395.4,243.4,395.4,244.1z"/>
<path fill-rule="evenodd" clip-rule="evenodd" fill="#FFFFFF" d="M283.2,243.3l1.3,2.3l2.4-2.3c-0.5,1.4-0.8,2.8-0.8,4.1
	c0,1,0.9,3.1,2.5,6.4l4.9,9.5h2.8h2.5h0.1l0,0c0.8,0.1,2.3,1.2,4.4,3.2c0.7,0.8,2,2.1,3.7,3.9c0.4-0.6,0.6-1.2,0.6-1.7
	c0-0.5-0.3-1.5-1.2-3.1l-1.6-3.2c-1.2-2.4-1.8-4-1.8-4.9c0-1.5,0.6-2.9,1.7-4.2c1.6-1.5,3-2.9,4.5-4.3c-0.3,1.2-0.5,2.1-0.5,2.8
	c0,0.9,0.5,2.4,1.6,4.4l2.4,4.7c1,2.1,1.5,3.6,1.5,4.7l0,0c0,1.2-0.2,2.2-0.7,3c-0.2,0.4-1,1.2-2.1,2.3l-5.6,5.3
	c-0.2-1.5-1.2-3-2.8-4.8c-1.6-1.8-2.9-2.7-4-2.7h-2.5h-13.1h-11.4c1-1.2,1.5-2.1,1.5-2.5c0-0.5-0.2-1.2-0.7-2.3
	c-0.4-1-0.7-2-0.7-2.9c0-1.7,0.6-3.2,1.9-4.5l5.9-5.9l-2.1-4.2l4.9-4.6L283.2,243.3L283.2,243.3z M283.2,257.3L283.2,257.3
	c-0.4-1.1-0.7-1.9-0.7-2.5c-0.2,0.2-0.7,0.8-1.6,1.7c-0.4,0.5-0.6,0.9-0.6,1.2c0,0.7,0.2,1.3,0.6,2.1l1.7,3.3c0.2,0,0.4,0,0.6,0
	c1.3,0,2.3,0,3,0l-2.5-4.9C283.6,258,283.5,257.7,283.2,257.3z"/>
<path fill-rule="evenodd" clip-rule="evenodd" fill="#FFFFFF" d="M312.7,281c0,0.6-0.6,1.9-1.9,3.8c-0.9-1.2-2.1-2.1-3.5-2.8
	c-1.1-0.4-1.6-0.9-1.6-1.6c0-0.7,1.4-2.1,4.2-4.3c0,0.8,0.6,1.7,1.4,2.5C312.2,279.5,312.7,280.3,312.7,281L312.7,281z"/>
<path fill-rule="evenodd" clip-rule="evenodd" fill="#FFFFFF" d="M304.4,281c0,0.6-0.6,1.9-1.8,3.8c-1-1.2-2.1-2.1-3.7-2.8
	c-1-0.4-1.6-0.9-1.6-1.6c0-0.7,1.4-2.1,4.3-4.3c0.1,0.8,0.6,1.7,1.5,2.5C304,279.5,304.4,280.3,304.4,281z"/>
<path fill-rule="evenodd" clip-rule="evenodd" fill="#FFFFFF" d="M283.2,236c0.7-0.7,1.9-1.8,3.6-3.2c0.1,0.8,0.6,1.7,1.6,2.5
	c0.9,0.9,1.3,1.6,1.3,2.4c0,0.6-0.7,1.8-1.9,3.8c-0.9-1.2-2.1-2.1-3.6-2.7c-0.3-0.2-0.7-0.4-1-0.6c-0.3-0.3-0.6-0.7-0.6-1.2
	C282.7,236.8,282.9,236.4,283.2,236z"/>
<path fill-rule="evenodd" clip-rule="evenodd" fill="#FFFFFF" d="M283.2,236"/>
<path fill-rule="evenodd" clip-rule="evenodd" fill="#FFFFFF" d="M281.3,237.7c0,0.6-0.6,1.8-1.8,3.8c-0.9-1.2-2.1-2.1-3.5-2.7
	c-1.2-0.4-1.6-1.1-1.6-1.8c0-0.5,1.4-2,4.2-4.2c0.1,0.8,0.6,1.7,1.5,2.5C280.9,236.2,281.3,236.9,281.3,237.7z"/>
<path fill-rule="evenodd" clip-rule="evenodd" fill="#FFFFFF" d="M529.8,267.7c-0.5,0.6-2.2,0.9-5.3,0.9c-3.4,0-5.7-0.4-7-1.3
	c-1.5-1.1-2.1-2.9-2.1-5.6v-22.4c0-1.6-1.4-4.8-4.1-9.6c1.8,0,4.4-2.1,7.9-6.3v34.5c0,2.5,0.6,4.5,1.8,5.8c1,1.2,2.6,2.1,4.9,3
	C526.9,266.9,528.1,267.2,529.8,267.7z"/>
<path fill-rule="evenodd" clip-rule="evenodd" fill="#FFFFFF" d="M500.5,252.3l0.6,1.2c2.6-4.2,3.9-7.3,3.9-9.5v-20.8
	c-1.7,2-3.2,3.5-4.5,4.5c-1.4,1.2-2.5,1.8-3.4,1.8c1.6,2.8,2.7,5,3.4,6.7c0.5,1.3,0.7,2.2,0.7,2.9v6.2c0,1.5-0.2,2.7-0.7,3.7
	c-0.2,0.5-0.5,0.9-0.9,1.3L500.5,252.3z"/>
<path fill-rule="evenodd" clip-rule="evenodd" fill="#FFFFFF" d="M500.5,255.4l2.1,4c0.9,1.8,1.4,4.1,1.4,6.7v2.4h-3.5h-11.2
	c-2.9,0-4.3-0.7-4.3-2.2v-3.9c1.6-0.2,3.5-1.2,5.8-3.2l3-2.6l1.6,2.6c-1.7,1.8-2.6,2.7-2.6,3c0,0.7,0.6,1.1,1.8,1.1h1.8
	c0.9,0,1.5-0.4,1.5-1.3c0-0.4-0.4-1.4-1.3-3.1l-5.2-10.2c-2.1-4.2-3.1-6.7-3.1-7.8v-1.6c0-1.6-1.2-4.8-4-9.6c1.6,0,4.2-2.1,7.8-6.3
	v12.5c0,1.4,0.3,2.9,1.1,4.4c0.2,0.7,1.2,2.5,2.7,5.6L500.5,255.4z"/>
<path fill-rule="evenodd" clip-rule="evenodd" fill="#FFFFFF" d="M498.4,271.6c-0.4,0.2-1,0.7-1.9,1.4l-0.9,1.2
	c-0.3,0.4-0.5,0.7-0.5,0.7c0,0.2,0.2,0.6,0.5,0.9l1.6,1.6c0.5,0.4,0.7,1,0.7,1.5c0,0.7-0.2,1.2-0.6,1.5l-2.5,2.5
	c-0.7,0.8-1.8,1.2-3.1,1.2c-0.7,0-1.1-0.1-1.5-0.2c0.6-0.2,1.2-0.5,1.7-1.2l0.9-1.1c0.5-0.6,0.7-1,0.7-1.2c0-0.2-0.2-0.5-0.6-1
	l-1.4-1.2c-0.6-0.6-0.9-1.2-0.9-1.7c0-0.6,0.3-1.2,1-1.7l2.2-2.1c0.6-0.7,1.6-0.9,3.1-0.9C497.5,271.5,497.9,271.6,498.4,271.6z"/>
<path fill-rule="evenodd" clip-rule="evenodd" fill="#FFFFFF" d="M558.2,210.5h-5.7l-2.2-5.7h-10.4l-2.1,5.7h-5.6l10.1-25.1h5.6
	L558.2,210.5L558.2,210.5z M548.6,200.5l-3.6-9.3l-3.5,9.3H548.6z"/>
<polygon fill-rule="evenodd" clip-rule="evenodd" fill="#FFFFFF" points="508.6,210.5 508.6,185.4 513.7,185.4 524.3,202.2 
	524.3,185.4 529.3,185.4 529.3,210.5 524,210.5 513.5,194 513.5,210.5 "/>
<rect x="498.4" y="185.4" fill-rule="evenodd" clip-rule="evenodd" fill="#FFFFFF" width="5.3" height="25.1"/>
<path fill-rule="evenodd" clip-rule="evenodd" fill="#FFFFFF" d="M472.3,210.5v-25.1h11c2.8,0,4.9,0.2,6.1,0.7
	c1.2,0.5,2.3,1.2,3,2.4c0.7,1.1,1.2,2.5,1.2,4c0,1.8-0.6,3.4-1.7,4.6c-1.2,1.2-2.9,2.1-5.2,2.4c1.2,0.6,2.1,1.3,2.8,2.1
	c0.7,0.8,1.7,2.1,3,4.1l3.1,4.9h-6.2l-3.8-5.4c-1.3-2-2.3-3.2-2.8-3.7c-0.5-0.5-1-0.8-1.6-1.1c-0.6-0.2-1.5-0.2-2.6-0.2h-1.1v10.4
	H472.3L472.3,210.5z M477.6,196h3.9c2.5,0,4.1-0.1,4.7-0.3c0.7-0.2,1.2-0.5,1.5-1.1c0.4-0.5,0.6-1.1,0.6-1.8c0-0.9-0.2-1.6-0.7-2.1
	c-0.4-0.6-1.1-0.9-2-1c-0.4-0.1-1.7-0.1-3.8-0.1h-4.1V196z"/>
<path fill-rule="evenodd" clip-rule="evenodd" fill="#FFFFFF" d="M446.1,185.4h9.5c2.1,0,3.8,0.2,4.9,0.5c1.6,0.4,2.8,1.2,3.9,2.3
	c1.1,1.1,1.9,2.5,2.5,4c0.6,1.6,0.8,3.6,0.8,6c0,2.1-0.2,3.8-0.8,5.3c-0.6,1.8-1.6,3.3-2.7,4.4c-0.9,0.8-2.1,1.5-3.7,2
	c-1.2,0.3-2.7,0.5-4.7,0.5h-9.8V185.4L446.1,185.4z M451.3,189.7v16.6h3.9c1.5,0,2.5-0.1,3.2-0.2c0.8-0.2,1.5-0.6,2.1-1.1
	c0.6-0.5,1.1-1.3,1.4-2.4c0.3-1.2,0.5-2.7,0.5-4.6c0-2-0.2-3.5-0.5-4.5c-0.3-1-0.8-1.8-1.5-2.4c-0.7-0.6-1.5-1-2.5-1.2
	c-0.7-0.2-2.1-0.2-4.3-0.2H451.3z"/>
<polygon fill-rule="evenodd" clip-rule="evenodd" fill="#FFFFFF" points="419.7,210.5 419.7,185.4 424.8,185.4 435.5,202.2 
	435.5,185.4 440.5,185.4 440.5,210.5 435.2,210.5 424.7,194 424.7,210.5 "/>
<path fill-rule="evenodd" clip-rule="evenodd" fill="#FFFFFF" d="M390.9,210.5l10.1-25.1h5.5l10.4,25.1h-5.7l-2.2-5.7h-10.4
	l-2.1,5.7H390.9L390.9,210.5z M407.3,200.5l-3.6-9.3l-3.5,9.3H407.3z"/>
<polygon fill-rule="evenodd" clip-rule="evenodd" fill="#FFFFFF" points="390.9,210.5 384.5,210.5 378.8,202 373,210.5 366.7,210.5 
	375.7,197.4 367.5,185.4 373.7,185.4 378.8,192.9 383.9,185.4 390.1,185.4 381.9,197.4 "/>
<polygon fill-rule="evenodd" clip-rule="evenodd" fill="#FFFFFF" points="345.2,210.5 345.2,185.4 364.4,185.4 364.4,189.7 
	350.4,189.7 350.4,195.2 363.4,195.2 363.4,199.4 350.4,199.4 350.4,206.3 364.9,206.3 364.9,210.5 "/>
<polygon fill-rule="evenodd" clip-rule="evenodd" fill="#FFFFFF" points="323.1,210.5 323.1,185.5 328.4,185.5 328.4,206.3 
	341.4,206.3 341.4,210.5 "/>
<path fill-rule="evenodd" clip-rule="evenodd" fill="#FFFFFF" d="M320.2,210.5h-5.7l-2.3-5.7h-10.4l-2.2,5.7h-5.5l10-25.1h5.6
	L320.2,210.5L320.2,210.5z M310.5,200.5l-3.6-9.3l-3.5,9.3H310.5z"/>
<path fill-rule="evenodd" clip-rule="evenodd" fill="#FFFFFF" d="M283.8,210.5h-5.7l-2.2-5.7h-10.4l-2.1,5.7h-5.6l10.1-25.1h5.5
	L283.8,210.5L283.8,210.5z M274.2,200.5l-3.6-9.3l-3.5,9.3H274.2z"/>
<path fill-rule="evenodd" clip-rule="evenodd" fill="#FFFFFF" d="M250.8,201.2l5.1,1.5c-0.7,2.8-2.1,4.9-3.9,6.2
	c-1.8,1.3-4.1,2.1-6.9,2.1c-3.5,0-6.3-1.2-8.6-3.5c-2.2-2.3-3.3-5.4-3.3-9.4c0-4.2,1.1-7.4,3.3-9.7c2.2-2.4,5.2-3.5,8.9-3.5
	c3.1,0,5.8,0.9,7.7,2.8c1.2,1.1,2.1,2.5,2.6,4.6l-5.2,1.2c-0.3-1.2-0.9-2.3-1.9-3c-1-0.7-2.2-1.2-3.6-1.2c-1.9,0-3.5,0.7-4.7,2.1
	c-1.2,1.3-1.8,3.5-1.8,6.5c0,3.1,0.7,5.4,1.8,6.7c1.2,1.3,2.7,2.1,4.6,2.1c1.4,0,2.6-0.5,3.6-1.3
	C249.6,204.5,250.3,203.1,250.8,201.2z"/>
<polygon fill-rule="evenodd" clip-rule="evenodd" fill="#FFFFFF" points="210,210.5 210,185.4 229.2,185.4 229.2,189.7 215.2,189.7 
	215.2,195.2 228.2,195.2 228.2,199.4 215.2,199.4 215.2,206.3 229.7,206.3 229.7,210.5 "/>
<polygon fill-rule="evenodd" clip-rule="evenodd" fill="#FFFFFF" points="183.7,210.5 183.7,185.4 189,185.4 189,195.2 199.2,195.2 
	199.2,185.4 204.5,185.4 204.5,210.5 199.2,210.5 199.2,199.5 189,199.5 189,210.5 "/>
<path fill-rule="evenodd" clip-rule="evenodd" fill="#FFFFFF" d="M38.4,185.4h10.4c2.1,0,3.5,0.1,4.6,0.2c1,0.2,1.9,0.5,2.7,1
	c0.7,0.6,1.4,1.2,2,2.1c0.5,0.9,0.8,1.8,0.8,3c0,1.2-0.3,2.2-1,3.2c-0.7,1-1.6,1.7-2.7,2.2c1.6,0.4,2.8,1.2,3.7,2.3
	c0.8,1.1,1.2,2.3,1.2,3.8c0,1.2-0.2,2.2-0.8,3.3c-0.6,1.1-1.3,2-2.2,2.6c-1,0.7-2.1,1.1-3.5,1.2c-0.9,0.1-3,0.2-6.3,0.2h-8.9V185.4
	L38.4,185.4z M43.7,189.6v5.8h3.5c2.1,0,3.3,0,3.8-0.1c0.9-0.1,1.6-0.4,2.1-0.9c0.5-0.5,0.7-1.2,0.7-2c0-0.7-0.2-1.4-0.7-1.9
	c-0.4-0.4-1.1-0.7-2-0.8c-0.5-0.1-2-0.1-4.4-0.1H43.7L43.7,189.6z M43.7,199.5v6.7h4.9c1.9,0,3.1-0.1,3.6-0.2c0.8-0.2,1.4-0.5,1.9-1
	c0.5-0.6,0.7-1.2,0.7-2.1c0-0.8-0.2-1.4-0.6-2c-0.3-0.5-0.9-0.9-1.6-1.2c-0.7-0.2-2.2-0.3-4.6-0.3H43.7z"/>
<polygon fill-rule="evenodd" clip-rule="evenodd" fill="#FFFFFF" points="167.4,210.5 167.4,189.7 159.6,189.7 159.6,185.4 
	180.3,185.4 180.3,189.7 172.6,189.7 172.6,210.5 "/>
<path fill-rule="evenodd" clip-rule="evenodd" fill="#FFFFFF" d="M132.2,198.1c0-2.6,0.4-4.8,1.2-6.5c0.6-1.3,1.4-2.5,2.4-3.5
	c1.1-1,2.1-1.8,3.4-2.3c1.6-0.7,3.5-1,5.6-1c3.9,0,6.9,1.2,9.2,3.5c2.3,2.3,3.5,5.5,3.5,9.6c0,4.1-1.2,7.2-3.5,9.5
	c-2.2,2.3-5.3,3.5-9.1,3.5c-3.9,0-6.9-1.2-9.2-3.5C133.3,205.3,132.2,202.1,132.2,198.1L132.2,198.1z M137.6,197.9
	c0,2.9,0.7,5,2.1,6.5c1.3,1.5,3,2.2,5.2,2.2c2.1,0,3.8-0.7,5.2-2.2c1.3-1.4,2-3.6,2-6.5c0-2.9-0.7-5.1-2-6.5c-1.2-1.4-3-2.1-5.2-2.1
	c-2.1,0-3.9,0.7-5.3,2.1C138.3,192.9,137.6,195,137.6,197.9z"/>
<rect x="123" y="185.4" fill-rule="evenodd" clip-rule="evenodd" fill="#FFFFFF" width="5.3" height="25.1"/>
<polygon fill-rule="evenodd" clip-rule="evenodd" fill="#FFFFFF" points="101.2,210.5 101.2,185.5 106.4,185.5 106.4,206.3 
	119.4,206.3 119.4,210.5 "/>
<path fill-rule="evenodd" clip-rule="evenodd" fill="#FFFFFF" d="M74.8,185.4h10.4c2.1,0,3.6,0.1,4.6,0.2c1.1,0.2,2,0.5,2.7,1
	c0.8,0.6,1.5,1.2,2.1,2.1c0.5,0.9,0.7,1.8,0.7,3c0,1.2-0.3,2.2-1,3.2c-0.7,1-1.5,1.7-2.6,2.2c1.6,0.4,2.8,1.2,3.6,2.3
	c0.9,1.1,1.3,2.3,1.3,3.8c0,1.2-0.3,2.2-0.8,3.3c-0.6,1.1-1.3,2-2.3,2.6c-0.9,0.7-2.1,1.1-3.5,1.2c-0.9,0.1-3,0.2-6.4,0.2h-8.8
	V185.4L74.8,185.4z M80,189.6v5.8h3.5c2,0,3.3,0,3.8-0.1c0.9-0.1,1.6-0.4,2.1-0.9c0.5-0.5,0.7-1.2,0.7-2c0-0.7-0.2-1.4-0.7-1.9
	c-0.4-0.4-1.1-0.7-2-0.8c-0.5-0.1-2.1-0.1-4.5-0.1H80L80,189.6z M80,199.5v6.7h4.9c1.9,0,3.1-0.1,3.6-0.2c0.7-0.2,1.4-0.5,1.9-1
	c0.5-0.6,0.7-1.2,0.7-2.1c0-0.8-0.2-1.4-0.6-2c-0.4-0.5-0.9-0.9-1.6-1.2c-0.7-0.2-2.3-0.3-4.7-0.3H80z"/>
<rect x="64.5" y="185.4" fill-rule="evenodd" clip-rule="evenodd" fill="#FFFFFF" width="5.3" height="25.1"/>
<path fill-rule="evenodd" clip-rule="evenodd" fill="#FFFFFF" d="M619.3,153.5l-0.3,0l-0.3,0l-0.3,0l-0.3,0l-0.3,0l-0.3,0l-0.3,0
	l-0.3,0c-6.6-5.4-13.2-10.6-19.9-15.7s-13.4-10-20.2-14.8c-6.8-4.8-13.6-9.5-20.6-14c-6.9-4.5-13.9-9-21-13.3
	c-7.1-4.3-14.2-8.5-21.4-12.5c-7.2-4.1-14.5-8-22-11.8c-7.4-3.8-14.9-7.5-22.5-11.1c-7.6-3.6-15.3-7.1-23.1-10.5
	c-7.3-3.2-16-6.3-25.6-9.2c-9.6-2.9-20-5.5-30.9-7.7c-10.9-2.1-22.2-3.7-33.6-4.6c-11.3-0.8-22.6-0.9-33.5,0
	c-10.9,0.9-21.3,2.9-30.8,6.1S274.2,42,267,48c-7.2,6-13.1,13.5-17.2,22.8c-4.1,9.3-6.3,20.3-6.3,33.4c0,1.8,0.2,3.9,0.6,6.2
	s0.9,4.8,1.5,7.5c0.6,2.7,1.4,5.4,2.2,8.2c0.8,2.8,1.7,5.6,2.6,8.4c0.9,2.8,1.9,5.5,2.8,8c0.9,2.5,1.9,4.9,2.8,7.1
	c0.9,2.1,1.7,4,2.5,5.5c0.7,1.5,1.4,2.7,1.9,3.4h-13.7h-13.7h-13.7h-13.7h-13.7H178h-13.7h-13.7c2.5-3.5,5-7,7.4-10.5
	s4.9-7,7.3-10.6s4.8-7.1,7.2-10.6c2.4-3.5,4.8-7.1,7.2-10.7c2.4-3.6,4.8-7.1,7.2-10.7c2.4-3.5,4.8-7.1,7.2-10.6
	c2.4-3.5,4.9-7.1,7.3-10.6c2.5-3.5,4.9-7,7.4-10.5c12.2-17,26.4-29.8,42.1-39s32.9-15,51.1-17.8s37.3-2.6,56.8-0.1
	c19.6,2.5,39.6,7.3,59.5,13.9s39.7,14.8,58.9,24.3s37.8,19.9,55.2,31c17.4,11,33.7,22.6,48.4,34S608.6,142.8,619.3,153.5z"/>
</svg>
